<?xml version="1.0" standalone="no"?>
<!DOCTYPE svg PUBLIC "-//W3C//DTD SVG 20010904//EN"
 "http://www.w3.org/TR/2001/REC-SVG-20010904/DTD/svg10.dtd">
<svg version="1.0" xmlns="http://www.w3.org/2000/svg"
 width="16.000000pt" height="16.000000pt" viewBox="0 0 16.000000 16.000000"
 preserveAspectRatio="xMidYMid meet">
<metadata>
Created by potrace 1.11, written by Peter Selinger 2001-2013
</metadata>
<g transform="translate(0.000000,16.000000) scale(0.006154,-0.006154)"
fill="#000000" stroke="none">
<path d="M750 2087 c0 -39 143 -340 194 -410 20 -26 36 -57 36 -68 0 -10 7
-19 15 -19 8 0 15 -9 15 -20 0 -28 25 -36 54 -17 23 15 23 17 9 69 -10 36 -12
78 -8 131 l5 77 -31 0 c-30 0 -31 -2 -26 -32 4 -18 9 -62 13 -98 l7 -65 -23
20 c-27 24 -59 88 -134 265 -31 75 -65 150 -76 168 -26 43 -50 42 -50 -1z"/>
<path d="M260 1893 c0 -10 4 -23 8 -29 11 -16 116 -102 207 -169 44 -32 97
-73 117 -91 64 -57 114 -85 177 -100 64 -14 135 -46 146 -64 4 -6 -1 -22 -10
-37 -16 -24 -21 -25 -78 -20 -63 5 -150 18 -410 64 -167 29 -245 28 -320 -5
-38 -17 -51 -30 -67 -64 -20 -46 -19 -58 10 -58 12 0 28 16 42 41 37 66 87 83
166 55 22 -8 82 -17 133 -21 52 -3 135 -12 184 -20 193 -30 238 -35 309 -35
70 0 75 1 78 23 3 19 8 22 41 19 33 -3 37 -1 37 20 0 18 -9 29 -35 41 -19 9
-35 21 -35 25 0 5 -11 21 -24 35 -13 14 -26 32 -28 39 -4 10 -11 11 -37 1 -27
-10 -37 -8 -76 13 -24 14 -72 36 -107 50 -37 14 -81 42 -108 67 -25 24 -67 61
-94 83 -26 21 -80 65 -119 97 -73 58 -107 71 -107 40z"/>
<path d="M1943 1560 c-96 -20 -182 -93 -203 -172 -7 -23 -10 -76 -8 -118 3
-61 8 -82 29 -113 60 -87 151 -123 288 -114 48 3 103 11 124 17 l37 11 0 82
c0 45 3 92 6 105 6 21 4 22 -54 22 l-61 0 -3 -87 -3 -87 -35 -7 c-55 -12 -115
8 -154 51 -82 91 -63 260 37 334 22 16 43 21 92 21 56 0 67 -3 105 -34 23 -18
43 -31 44 -30 5 6 26 71 26 80 0 14 -95 40 -160 44 -36 2 -84 0 -107 -5z"/>
<path d="M2376 1560 c-91 -28 -136 -153 -83 -231 14 -21 52 -50 97 -75 76 -41
102 -70 93 -104 -18 -68 -131 -71 -162 -4 -20 44 -36 32 -46 -37 l-7 -45 40
-12 c89 -27 188 -6 242 52 20 22 25 40 28 95 4 60 1 70 -21 97 -14 17 -54 46
-89 64 -82 43 -98 58 -98 90 0 63 82 82 130 30 15 -16 31 -30 34 -30 3 0 11
18 17 41 14 46 10 51 -51 69 -41 12 -84 12 -124 0z"/>
<path d="M1115 1304 l0 -254 63 0 62 0 0 254 0 254 -62 0 -63 0 0 -254z"/>
<path d="M1325 1304 l0 -254 120 0 c137 0 174 12 212 69 44 66 24 149 -46 190
-20 11 -31 21 -24 21 6 0 25 12 42 26 36 30 48 78 31 129 -19 59 -69 75 -217
74 l-118 -1 0 -254z m208 175 c40 -48 1 -138 -59 -139 -26 0 -33 32 -26 116
l5 56 31 -6 c17 -3 39 -16 49 -27z m-11 -209 c63 -49 28 -170 -50 -170 -16 0
-20 9 -24 63 -8 93 -1 127 27 127 12 0 34 -9 47 -20z"/>
<path d="M735 1251 c-227 -71 -555 -267 -555 -333 0 -32 28 -19 96 42 69 62
153 109 282 155 41 15 110 44 155 66 102 49 126 50 167 2 29 -32 32 -41 26
-79 -3 -23 -17 -59 -30 -79 -14 -20 -28 -44 -31 -53 -3 -9 -27 -32 -53 -50
-324 -223 -422 -312 -422 -384 0 -50 38 -33 93 42 72 97 133 155 201 191 34
18 80 49 103 71 24 21 60 45 81 53 41 17 66 59 110 180 14 41 28 57 75 89 63
44 76 76 30 76 -16 0 -39 -9 -53 -20 -35 -27 -49 -25 -80 12 -23 27 -34 31
-81 34 -33 2 -77 -4 -114 -15z"/>
<path d="M1149 961 c-35 -40 -36 -40 -92 -34 -71 7 -82 -2 -170 -131 -33 -49
-93 -125 -133 -168 -51 -54 -74 -87 -74 -103 0 -58 51 -16 185 148 44 54 92
123 107 152 34 66 54 74 116 43 55 -27 62 -51 38 -126 -8 -26 -18 -72 -22
-102 -3 -30 -15 -77 -25 -103 -23 -58 -23 -57 -4 -57 47 0 137 331 105 389
-10 19 -8 28 14 60 52 74 16 100 -45 32z"/>
</g>
</svg>
